<?xml version="1.0" encoding="UTF-8" standalone="no"?><!DOCTYPE svg PUBLIC "-//W3C//DTD SVG 1.1//EN" "http://www.w3.org/Graphics/SVG/1.1/DTD/svg11.dtd">
<svg width="53" height="53" viewBox="0 0 144 144" version="1.1" 
    xmlns="http://www.w3.org/2000/svg" 
    xmlns:xlink="http://www.w3.org/1999/xlink" xml:space="preserve" 
    xmlns:serif="http://www.serif.com/" style="fill-rule:evenodd;clip-rule:evenodd;stroke-linejoin:round;stroke-miterlimit:1.41421;">
    <g id="Layer1">
        <path d="M67.345,10.452c0,-2.693 -2.186,-4.88 -4.88,-4.88l-21.561,0c-2.694,0 -4.88,2.187 -4.88,4.88l0,21.97c0,2.693 2.186,4.88 4.88,4.88l21.561,0c2.694,0 4.88,-2.187 4.88,-4.88l0,-21.97Z" style="fill:#108ee9;"/>
        <path d="M67.273,46.249c0,-2.694 -2.186,-4.88 -4.88,-4.88l-21.562,0c-2.693,0 -4.879,2.186 -4.879,4.88l0,21.969c0,2.693 2.186,4.88 4.879,4.88l21.562,0c2.694,0 4.88,-2.187 4.88,-4.88l0,-21.969Z" style="fill:#108ee9;"/>
        <path d="M67.345,112.009c0,-2.694 -2.186,-4.88 -4.88,-4.88l-21.561,0c-2.694,0 -4.88,2.186 -4.88,4.88l0,21.969c0,2.694 2.186,4.88 4.88,4.88l21.561,0c2.694,0 4.88,-2.186 4.88,-4.88l0,-21.969Z" style="fill:#108ee9;"/>
        <path d="M108.048,112.009c0,-2.694 -2.186,-4.88 -4.879,-4.88l-21.562,0c-2.694,0 -4.88,2.186 -4.88,4.88l0,21.969c0,2.694 2.186,4.88 4.88,4.88l21.562,0c2.693,0 4.879,-2.186 4.879,-4.88l0,-21.969Z" style="fill:#108ee9;"/>
        <rect x="35.952" y="77.235" width="72.097" height="26.068" style="fill:#ffa938;"/>
    </g>
    <g id="Layer3">
        <path d="M112.348,1.989l3.254,0c10.953,0 16.429,5.208 16.429,15.622l0,42.817c0,1.178 0.164,2.219 0.492,3.12c0.756,3.144 4.199,5.558 8.407,5.756l0,4.595c-4.762,0.224 -8.543,3.286 -8.562,7.031c-0.224,0.786 -0.337,1.667 -0.337,2.642l0,42.817c0,10.414 -5.476,15.622 -16.429,15.622l-3.254,0l0,-3.513l4.911,0c5.477,0 8.215,-2.444 8.215,-7.331l0,-42.766c0,-7.955 1.958,-13.385 5.875,-16.29l0,-0.411c-3.917,-2.905 -5.875,-8.335 -5.875,-16.29l0,-42.766c0,-4.888 -2.738,-7.331 -8.215,-7.332l-4.911,0l0,-3.323Z" style="fill:#02ec82;"/>
        <path d="M32.169,1.989l-3.255,0c-10.953,0 -16.429,5.208 -16.429,15.622l0,42.817c0,1.178 -0.164,2.219 -0.491,3.12c-0.757,3.144 -4.199,5.558 -8.408,5.756l0,4.595c4.763,0.224 8.544,3.286 8.562,7.031c0.225,0.786 0.337,1.667 0.337,2.642l0,42.817c0,10.414 5.476,15.622 16.429,15.622l3.255,0l0,-3.513l-4.912,0c-5.477,0 -8.214,-2.444 -8.214,-7.331l0,-42.766c0,-7.955 -1.959,-13.385 -5.875,-16.29l0,-0.411c3.916,-2.905 5.875,-8.335 5.875,-16.29l0,-42.766c0,-4.888 2.737,-7.331 8.214,-7.332l4.912,0l0,-3.323Z" style="fill:#02ec82;"/>
    </g>
</svg>