<?xml version="1.0" standalone="no"?>
<!DOCTYPE svg PUBLIC "-//W3C//DTD SVG 20010904//EN"
 "http://www.w3.org/TR/2001/REC-SVG-20010904/DTD/svg10.dtd">
<svg version="1.0" xmlns="http://www.w3.org/2000/svg"
 width="700.000000pt" height="700.000000pt" viewBox="0 0 700.000000 700.000000"
 preserveAspectRatio="xMidYMid meet">
<metadata>
Created by potrace 1.11, written by Peter Selinger 2001-2013
</metadata>
<g transform="translate(0.000000,700.000000) scale(0.100000,-0.100000)"
fill="#000000" stroke="none">
<path d="M1293 6898 c-232 -19 -370 -74 -493 -198 -108 -108 -167 -242 -186
-423 -4 -34 -8 -568 -9 -1187 -2 -1201 0 -1154 -49 -1248 -20 -39 -81 -101
-131 -134 -55 -37 -168 -72 -245 -78 -5 0 -5 -196 -1 -222 1 -3 9 -5 19 -4 25
4 120 -20 167 -41 122 -56 202 -149 220 -256 3 -18 9 -54 14 -82 5 -27 9 -552
9 -1165 0 -1218 -1 -1209 58 -1357 92 -233 295 -370 590 -398 53 -6 239 -9
289 -6 19 1 20 8 19 84 l-1 82 -124 2 c-186 2 -248 9 -313 33 -102 39 -173
124 -191 230 -5 25 -9 560 -10 1190 -1 842 -5 1167 -14 1227 -32 217 -102 382
-207 489 -35 35 -64 66 -64 68 0 3 27 31 59 64 116 118 187 292 217 527 4 33
8 580 10 1215 1 635 5 1165 7 1177 11 45 49 119 75 146 77 81 167 106 391 108
l166 2 0 73 c-1 40 -4 77 -8 81 -10 9 -157 10 -264 1z"/>
<path d="M5477 6902 c-15 -3 -17 -15 -16 -82 l1 -78 152 -1 c178 0 211 -4 290
-34 73 -27 143 -94 171 -163 22 -54 20 71 28 -1749 2 -390 7 -728 11 -750 10
-54 36 -166 43 -185 3 -8 7 -22 9 -30 11 -53 93 -189 152 -252 37 -38 68 -73
70 -77 1 -4 -8 -13 -20 -20 -37 -21 -113 -116 -151 -189 -19 -37 -47 -106 -61
-153 -54 -177 -54 -191 -56 -1419 0 -624 -3 -1153 -6 -1175 -7 -50 -43 -131
-77 -170 -30 -37 -117 -82 -172 -91 -22 -3 -43 -8 -47 -10 -3 -2 -81 -4 -172
-5 l-166 -1 0 -84 c0 -97 -19 -87 155 -85 129 1 198 7 280 27 33 8 67 16 75
18 8 2 41 15 72 29 190 84 302 227 355 452 14 62 16 194 19 1208 1 625 5 1156
9 1180 3 23 8 60 11 82 17 134 144 257 304 295 30 7 66 14 80 15 25 1 25 1 28
113 2 85 0 112 -10 113 -15 2 -19 2 -78 13 -58 10 -176 68 -217 105 -66 61
-109 150 -119 247 -4 28 -7 559 -8 1180 l-2 1129 -23 92 c-12 51 -27 95 -32
99 -5 3 -9 11 -9 19 0 29 -76 142 -131 195 -134 130 -323 188 -624 194 -55 1
-108 0 -118 -2z"/>
<path d="M1915 6718 c-37 -14 -83 -45 -112 -78 -51 -57 -53 -80 -53 -685 0
-630 -1 -624 71 -696 73 -73 49 -70 679 -71 381 0 578 3 606 11 54 14 117 70
145 128 l23 47 0 581 c0 470 -3 588 -14 616 -23 58 -68 107 -124 133 l-53 25
-569 0 c-378 0 -579 -4 -599 -11z"/>
<path d="M1902 4973 c-55 -19 -125 -89 -140 -142 -10 -30 -13 -191 -13 -619
-1 -634 -3 -613 61 -686 17 -18 52 -44 78 -57 l47 -22 565 0 c438 0 574 3 605
13 59 19 110 64 139 122 l26 52 0 576 c0 647 1 637 -71 709 -72 72 -64 71
-693 70 -473 0 -568 -3 -604 -16z"/>
<path d="M1750 3225 c-3 -174 0 -1238 3 -1242 6 -6 3488 -5 3494 1 2 2 5 287
5 633 l0 628 -1751 0 -1751 1 0 -21z"/>
<path d="M1985 1789 c-78 -7 -130 -30 -172 -77 -63 -70 -64 -76 -61 -713 3
-635 0 -607 69 -677 68 -69 42 -67 672 -70 374 -2 581 1 607 8 58 16 120 68
149 125 l25 50 -1 585 c0 643 2 619 -62 692 -17 20 -52 46 -78 58 -45 21 -54
22 -567 23 -287 1 -548 0 -581 -4z"/>
<path d="M3965 1792 c-93 -8 -160 -47 -203 -121 l-27 -46 -3 -590 c-2 -433 0
-597 9 -620 22 -56 54 -95 104 -128 l50 -32 585 -3 585 -2 54 28 c62 31 116
97 126 153 12 67 8 1151 -5 1198 -16 60 -89 133 -151 150 -35 10 -177 13 -570
14 -288 1 -537 1 -554 -1z"/>
</g>
</svg>
